<svg width="59" height="59" viewBox="0 0 59 59" fill="none" xmlns="http://www.w3.org/2000/svg">
<path d="M52.7365 0H6.26347C2.8042 0 0 2.80419 0 6.26346V52.7365C0 56.1958 2.8042 59 6.26347 59H52.7365C56.1958 59 59 56.1958 59 52.7365V6.26346C59 2.80419 56.1958 0 52.7365 0ZM25.6132 45.733H19.0453L6.81967 13.267H19.1465L28.4421 38.1385L25.6132 45.733ZM41.6055 45.733H35.0377L22.812 13.267H35.1389L44.4344 38.1385L41.6055 45.733ZM46.0443 29.7221L39.8481 13.267H52.1749L52.1796 13.2801L46.0443 29.7221Z" fill="white"/>
</svg>
